<svg xmlns="http://www.w3.org/2000/svg" xmlns:xlink="http://www.w3.org/1999/xlink" width="559" height="612" viewBox="0 0 559 612">
  <defs>
    <clipPath id="clip-path">
      <rect id="Rectangle_9" data-name="Rectangle 9" width="559" height="612" transform="translate(-4259 1327)" fill="#02403d"/>
    </clipPath>
  </defs>
  <g id="bg-element" transform="translate(4259 -1327)" clip-path="url(#clip-path)">
    <path id="Path_10" data-name="Path 10" d="M356.822,753.877a128.241,128.241,0,0,1-64.489-17.365L82.722,614.429a127.094,127.094,0,0,1-37.606-33.4A128.436,128.436,0,0,1,23.3,536.211s-1.8-36,18.488-46.28,62.676,5.168,62.676,5.168l.033,8.756a42.9,42.9,0,0,0,21.217,36.751l209.61,122.082a42.729,42.729,0,0,0,42.853.083L586.308,542.607a42.823,42.823,0,0,0,21.359-37.155l-.193-50.7-91.1-77.911,176.094-37.247.629,165.538A128.443,128.443,0,0,1,629.018,616.6L420.9,736.751A128.319,128.319,0,0,1,356.822,753.877ZM104.184,420.239h-.009s.861,25.967-42.932,23.663-42.506-28.157-42.506-28.157L18.15,261.617A128.465,128.465,0,0,1,82.22,150.143L290.346,29.988a128.417,128.417,0,0,1,128.567.247l209.61,122.082a128.618,128.618,0,0,1,63.65,110.244l.046,12.094-85.373,15.011-.1-26.783a42.867,42.867,0,0,0-21.224-36.743l-209.6-122.082a42.707,42.707,0,0,0-42.861-.083L124.938,224.132a42.81,42.81,0,0,0-21.359,37.155l.6,158.943Z" transform="translate(-4393.577 1314.123)" fill="#f1ff53" opacity="0.24"/>
  </g>
</svg>
